<mxfile host="app.diagrams.net" modified="2023-07-27T16:22:43.917Z" agent="Mozilla/5.0 (Windows NT 10.0; Win64; x64) AppleWebKit/537.36 (KHTML, like Gecko) Chrome/114.0.0.0 Safari/537.36" etag="7ArhlF0w0XzXo8gkQrEg" version="21.6.2" type="device">
  <diagram id="C5RBs43oDa-KdzZeNtuy" name="Page-1">
    <mxGraphModel dx="2074" dy="2293" grid="1" gridSize="10" guides="1" tooltips="1" connect="1" arrows="1" fold="1" page="1" pageScale="1" pageWidth="827" pageHeight="1169" math="0" shadow="0">
      <root>
        <mxCell id="WIyWlLk6GJQsqaUBKTNV-0" />
        <mxCell id="WIyWlLk6GJQsqaUBKTNV-1" parent="WIyWlLk6GJQsqaUBKTNV-0" />
        <mxCell id="GjBpAneU1MjriTZgQyeh-2" style="edgeStyle=orthogonalEdgeStyle;rounded=0;orthogonalLoop=1;jettySize=auto;html=1;exitX=0.5;exitY=1;exitDx=0;exitDy=0;entryX=0.5;entryY=0;entryDx=0;entryDy=0;" edge="1" parent="WIyWlLk6GJQsqaUBKTNV-1" source="WIyWlLk6GJQsqaUBKTNV-3" target="WIyWlLk6GJQsqaUBKTNV-6">
          <mxGeometry relative="1" as="geometry" />
        </mxCell>
        <mxCell id="WIyWlLk6GJQsqaUBKTNV-3" value="Prompt user for input" style="rounded=1;whiteSpace=wrap;html=1;fontSize=12;glass=0;strokeWidth=1;shadow=0;" parent="WIyWlLk6GJQsqaUBKTNV-1" vertex="1">
          <mxGeometry x="308" y="40" width="180" height="60" as="geometry" />
        </mxCell>
        <mxCell id="GjBpAneU1MjriTZgQyeh-4" style="rounded=0;orthogonalLoop=1;jettySize=auto;html=1;exitX=0;exitY=1;exitDx=0;exitDy=0;entryX=0.5;entryY=0;entryDx=0;entryDy=0;" edge="1" parent="WIyWlLk6GJQsqaUBKTNV-1" source="WIyWlLk6GJQsqaUBKTNV-6" target="GjBpAneU1MjriTZgQyeh-0">
          <mxGeometry relative="1" as="geometry" />
        </mxCell>
        <mxCell id="GjBpAneU1MjriTZgQyeh-7" value="Login as User" style="edgeLabel;html=1;align=center;verticalAlign=middle;resizable=0;points=[];" vertex="1" connectable="0" parent="GjBpAneU1MjriTZgQyeh-4">
          <mxGeometry x="-0.1013" y="3" relative="1" as="geometry">
            <mxPoint as="offset" />
          </mxGeometry>
        </mxCell>
        <mxCell id="GjBpAneU1MjriTZgQyeh-5" style="rounded=0;orthogonalLoop=1;jettySize=auto;html=1;exitX=1;exitY=1;exitDx=0;exitDy=0;" edge="1" parent="WIyWlLk6GJQsqaUBKTNV-1" source="WIyWlLk6GJQsqaUBKTNV-6" target="GjBpAneU1MjriTZgQyeh-3">
          <mxGeometry relative="1" as="geometry" />
        </mxCell>
        <mxCell id="GjBpAneU1MjriTZgQyeh-6" style="edgeStyle=orthogonalEdgeStyle;rounded=0;orthogonalLoop=1;jettySize=auto;html=1;exitX=1;exitY=0.5;exitDx=0;exitDy=0;entryX=1;entryY=0.5;entryDx=0;entryDy=0;" edge="1" parent="WIyWlLk6GJQsqaUBKTNV-1" source="WIyWlLk6GJQsqaUBKTNV-6" target="WIyWlLk6GJQsqaUBKTNV-3">
          <mxGeometry relative="1" as="geometry">
            <Array as="points">
              <mxPoint x="574" y="220" />
              <mxPoint x="574" y="70" />
            </Array>
          </mxGeometry>
        </mxCell>
        <mxCell id="GjBpAneU1MjriTZgQyeh-9" value="Bad Input" style="edgeLabel;html=1;align=center;verticalAlign=middle;resizable=0;points=[];" vertex="1" connectable="0" parent="GjBpAneU1MjriTZgQyeh-6">
          <mxGeometry x="0.073" relative="1" as="geometry">
            <mxPoint y="1" as="offset" />
          </mxGeometry>
        </mxCell>
        <mxCell id="WIyWlLk6GJQsqaUBKTNV-6" value="User enters input" style="rhombus;whiteSpace=wrap;html=1;shadow=0;fontFamily=Helvetica;fontSize=12;align=center;strokeWidth=1;spacing=6;spacingTop=-4;" parent="WIyWlLk6GJQsqaUBKTNV-1" vertex="1">
          <mxGeometry x="335.5" y="170" width="125" height="100" as="geometry" />
        </mxCell>
        <mxCell id="GjBpAneU1MjriTZgQyeh-17" style="edgeStyle=orthogonalEdgeStyle;rounded=0;orthogonalLoop=1;jettySize=auto;html=1;exitX=0.5;exitY=1;exitDx=0;exitDy=0;entryX=0.5;entryY=0;entryDx=0;entryDy=0;" edge="1" parent="WIyWlLk6GJQsqaUBKTNV-1" source="GjBpAneU1MjriTZgQyeh-0" target="GjBpAneU1MjriTZgQyeh-16">
          <mxGeometry relative="1" as="geometry" />
        </mxCell>
        <mxCell id="GjBpAneU1MjriTZgQyeh-0" value="Prompt user for username" style="rounded=1;whiteSpace=wrap;html=1;fontSize=12;glass=0;strokeWidth=1;shadow=0;" vertex="1" parent="WIyWlLk6GJQsqaUBKTNV-1">
          <mxGeometry x="154" y="320" width="180" height="60" as="geometry" />
        </mxCell>
        <mxCell id="GjBpAneU1MjriTZgQyeh-11" style="edgeStyle=orthogonalEdgeStyle;rounded=0;orthogonalLoop=1;jettySize=auto;html=1;exitX=0.5;exitY=1;exitDx=0;exitDy=0;entryX=0.5;entryY=0;entryDx=0;entryDy=0;" edge="1" parent="WIyWlLk6GJQsqaUBKTNV-1" source="GjBpAneU1MjriTZgQyeh-3" target="GjBpAneU1MjriTZgQyeh-10">
          <mxGeometry relative="1" as="geometry" />
        </mxCell>
        <mxCell id="GjBpAneU1MjriTZgQyeh-3" value="Prompt user to enter username" style="rounded=1;whiteSpace=wrap;html=1;fontSize=12;glass=0;strokeWidth=1;shadow=0;" vertex="1" parent="WIyWlLk6GJQsqaUBKTNV-1">
          <mxGeometry x="488" y="320" width="180" height="60" as="geometry" />
        </mxCell>
        <mxCell id="GjBpAneU1MjriTZgQyeh-8" value="Create New User" style="edgeLabel;html=1;align=center;verticalAlign=middle;resizable=0;points=[];" vertex="1" connectable="0" parent="WIyWlLk6GJQsqaUBKTNV-1">
          <mxGeometry x="483.99802772055807" y="289.9996554769219" as="geometry">
            <mxPoint x="6" y="-2" as="offset" />
          </mxGeometry>
        </mxCell>
        <mxCell id="GjBpAneU1MjriTZgQyeh-12" style="edgeStyle=orthogonalEdgeStyle;rounded=0;orthogonalLoop=1;jettySize=auto;html=1;exitX=1;exitY=0.5;exitDx=0;exitDy=0;entryX=1;entryY=0.5;entryDx=0;entryDy=0;" edge="1" parent="WIyWlLk6GJQsqaUBKTNV-1" source="GjBpAneU1MjriTZgQyeh-10" target="GjBpAneU1MjriTZgQyeh-3">
          <mxGeometry relative="1" as="geometry">
            <Array as="points">
              <mxPoint x="714" y="470" />
              <mxPoint x="714" y="350" />
            </Array>
          </mxGeometry>
        </mxCell>
        <mxCell id="GjBpAneU1MjriTZgQyeh-13" value="Username already exists" style="edgeLabel;html=1;align=center;verticalAlign=middle;resizable=0;points=[];" vertex="1" connectable="0" parent="GjBpAneU1MjriTZgQyeh-12">
          <mxGeometry x="0.0981" y="1" relative="1" as="geometry">
            <mxPoint as="offset" />
          </mxGeometry>
        </mxCell>
        <mxCell id="GjBpAneU1MjriTZgQyeh-14" style="edgeStyle=orthogonalEdgeStyle;rounded=0;orthogonalLoop=1;jettySize=auto;html=1;exitX=0.5;exitY=1;exitDx=0;exitDy=0;entryX=0.5;entryY=0;entryDx=0;entryDy=0;" edge="1" parent="WIyWlLk6GJQsqaUBKTNV-1" source="GjBpAneU1MjriTZgQyeh-10" target="GjBpAneU1MjriTZgQyeh-15">
          <mxGeometry relative="1" as="geometry">
            <mxPoint x="578" y="560" as="targetPoint" />
          </mxGeometry>
        </mxCell>
        <mxCell id="GjBpAneU1MjriTZgQyeh-28" value="Username not taken" style="edgeLabel;html=1;align=center;verticalAlign=middle;resizable=0;points=[];" vertex="1" connectable="0" parent="GjBpAneU1MjriTZgQyeh-14">
          <mxGeometry x="-0.3087" y="-1" relative="1" as="geometry">
            <mxPoint x="1" y="9" as="offset" />
          </mxGeometry>
        </mxCell>
        <mxCell id="GjBpAneU1MjriTZgQyeh-10" value="User enters username" style="rhombus;whiteSpace=wrap;html=1;shadow=0;fontFamily=Helvetica;fontSize=12;align=center;strokeWidth=1;spacing=6;spacingTop=-4;" vertex="1" parent="WIyWlLk6GJQsqaUBKTNV-1">
          <mxGeometry x="515.5" y="420" width="125" height="100" as="geometry" />
        </mxCell>
        <mxCell id="GjBpAneU1MjriTZgQyeh-27" style="edgeStyle=orthogonalEdgeStyle;rounded=0;orthogonalLoop=1;jettySize=auto;html=1;exitX=0.5;exitY=1;exitDx=0;exitDy=0;entryX=0.5;entryY=0;entryDx=0;entryDy=0;" edge="1" parent="WIyWlLk6GJQsqaUBKTNV-1" source="GjBpAneU1MjriTZgQyeh-15" target="GjBpAneU1MjriTZgQyeh-25">
          <mxGeometry relative="1" as="geometry" />
        </mxCell>
        <mxCell id="GjBpAneU1MjriTZgQyeh-15" value="Prompt user for rest of information" style="rounded=1;whiteSpace=wrap;html=1;fontSize=12;glass=0;strokeWidth=1;shadow=0;" vertex="1" parent="WIyWlLk6GJQsqaUBKTNV-1">
          <mxGeometry x="488" y="620" width="180" height="60" as="geometry" />
        </mxCell>
        <mxCell id="GjBpAneU1MjriTZgQyeh-19" style="edgeStyle=orthogonalEdgeStyle;rounded=0;orthogonalLoop=1;jettySize=auto;html=1;exitX=0.5;exitY=1;exitDx=0;exitDy=0;entryX=0.5;entryY=0;entryDx=0;entryDy=0;" edge="1" parent="WIyWlLk6GJQsqaUBKTNV-1" source="GjBpAneU1MjriTZgQyeh-16" target="GjBpAneU1MjriTZgQyeh-18">
          <mxGeometry relative="1" as="geometry" />
        </mxCell>
        <mxCell id="GjBpAneU1MjriTZgQyeh-16" value="User enters username" style="rhombus;whiteSpace=wrap;html=1;shadow=0;fontFamily=Helvetica;fontSize=12;align=center;strokeWidth=1;spacing=6;spacingTop=-4;" vertex="1" parent="WIyWlLk6GJQsqaUBKTNV-1">
          <mxGeometry x="181.5" y="420" width="125" height="100" as="geometry" />
        </mxCell>
        <mxCell id="GjBpAneU1MjriTZgQyeh-21" style="edgeStyle=orthogonalEdgeStyle;rounded=0;orthogonalLoop=1;jettySize=auto;html=1;exitX=0.5;exitY=1;exitDx=0;exitDy=0;entryX=0.5;entryY=0;entryDx=0;entryDy=0;" edge="1" parent="WIyWlLk6GJQsqaUBKTNV-1" source="GjBpAneU1MjriTZgQyeh-18" target="GjBpAneU1MjriTZgQyeh-20">
          <mxGeometry relative="1" as="geometry" />
        </mxCell>
        <mxCell id="GjBpAneU1MjriTZgQyeh-18" value="Prompt user for password" style="rounded=1;whiteSpace=wrap;html=1;fontSize=12;glass=0;strokeWidth=1;shadow=0;" vertex="1" parent="WIyWlLk6GJQsqaUBKTNV-1">
          <mxGeometry x="154" y="560" width="180" height="60" as="geometry" />
        </mxCell>
        <mxCell id="GjBpAneU1MjriTZgQyeh-22" style="edgeStyle=orthogonalEdgeStyle;rounded=0;orthogonalLoop=1;jettySize=auto;html=1;exitX=0;exitY=0.5;exitDx=0;exitDy=0;entryX=0;entryY=0.5;entryDx=0;entryDy=0;" edge="1" parent="WIyWlLk6GJQsqaUBKTNV-1" source="GjBpAneU1MjriTZgQyeh-20" target="WIyWlLk6GJQsqaUBKTNV-6">
          <mxGeometry relative="1" as="geometry">
            <Array as="points">
              <mxPoint x="114" y="710" />
              <mxPoint x="114" y="220" />
            </Array>
          </mxGeometry>
        </mxCell>
        <mxCell id="GjBpAneU1MjriTZgQyeh-23" value="Incorrect username&lt;br&gt;or password" style="edgeLabel;html=1;align=center;verticalAlign=middle;resizable=0;points=[];" vertex="1" connectable="0" parent="GjBpAneU1MjriTZgQyeh-22">
          <mxGeometry x="-0.2105" relative="1" as="geometry">
            <mxPoint y="1" as="offset" />
          </mxGeometry>
        </mxCell>
        <mxCell id="GjBpAneU1MjriTZgQyeh-26" style="edgeStyle=orthogonalEdgeStyle;rounded=0;orthogonalLoop=1;jettySize=auto;html=1;exitX=0.5;exitY=1;exitDx=0;exitDy=0;" edge="1" parent="WIyWlLk6GJQsqaUBKTNV-1" source="GjBpAneU1MjriTZgQyeh-20" target="GjBpAneU1MjriTZgQyeh-24">
          <mxGeometry relative="1" as="geometry" />
        </mxCell>
        <mxCell id="GjBpAneU1MjriTZgQyeh-20" value="User enters password" style="rhombus;whiteSpace=wrap;html=1;shadow=0;fontFamily=Helvetica;fontSize=12;align=center;strokeWidth=1;spacing=6;spacingTop=-4;" vertex="1" parent="WIyWlLk6GJQsqaUBKTNV-1">
          <mxGeometry x="181.5" y="660" width="125" height="100" as="geometry" />
        </mxCell>
        <mxCell id="GjBpAneU1MjriTZgQyeh-31" style="rounded=0;orthogonalLoop=1;jettySize=auto;html=1;exitX=0.5;exitY=1;exitDx=0;exitDy=0;entryX=0.25;entryY=0;entryDx=0;entryDy=0;" edge="1" parent="WIyWlLk6GJQsqaUBKTNV-1" source="GjBpAneU1MjriTZgQyeh-24" target="GjBpAneU1MjriTZgQyeh-29">
          <mxGeometry relative="1" as="geometry" />
        </mxCell>
        <mxCell id="GjBpAneU1MjriTZgQyeh-24" value="Fetches User with username and password from database" style="rounded=1;whiteSpace=wrap;html=1;fontSize=12;glass=0;strokeWidth=1;shadow=0;" vertex="1" parent="WIyWlLk6GJQsqaUBKTNV-1">
          <mxGeometry x="154" y="810" width="180" height="60" as="geometry" />
        </mxCell>
        <mxCell id="GjBpAneU1MjriTZgQyeh-30" style="rounded=0;orthogonalLoop=1;jettySize=auto;html=1;exitX=0.5;exitY=1;exitDx=0;exitDy=0;entryX=0.75;entryY=0;entryDx=0;entryDy=0;" edge="1" parent="WIyWlLk6GJQsqaUBKTNV-1" source="GjBpAneU1MjriTZgQyeh-25" target="GjBpAneU1MjriTZgQyeh-29">
          <mxGeometry relative="1" as="geometry" />
        </mxCell>
        <mxCell id="GjBpAneU1MjriTZgQyeh-25" value="Adds User with username and password to database" style="rounded=1;whiteSpace=wrap;html=1;fontSize=12;glass=0;strokeWidth=1;shadow=0;" vertex="1" parent="WIyWlLk6GJQsqaUBKTNV-1">
          <mxGeometry x="488" y="810" width="180" height="60" as="geometry" />
        </mxCell>
        <mxCell id="GjBpAneU1MjriTZgQyeh-36" style="edgeStyle=orthogonalEdgeStyle;rounded=0;orthogonalLoop=1;jettySize=auto;html=1;exitX=0.5;exitY=1;exitDx=0;exitDy=0;entryX=0.5;entryY=0;entryDx=0;entryDy=0;" edge="1" parent="WIyWlLk6GJQsqaUBKTNV-1" source="GjBpAneU1MjriTZgQyeh-29" target="GjBpAneU1MjriTZgQyeh-35">
          <mxGeometry relative="1" as="geometry" />
        </mxCell>
        <mxCell id="GjBpAneU1MjriTZgQyeh-29" value="User object is created with relevant information" style="rounded=1;whiteSpace=wrap;html=1;fontSize=12;glass=0;strokeWidth=1;shadow=0;" vertex="1" parent="WIyWlLk6GJQsqaUBKTNV-1">
          <mxGeometry x="308" y="940" width="180" height="60" as="geometry" />
        </mxCell>
        <mxCell id="GjBpAneU1MjriTZgQyeh-41" style="edgeStyle=orthogonalEdgeStyle;rounded=0;orthogonalLoop=1;jettySize=auto;html=1;exitX=0.5;exitY=1;exitDx=0;exitDy=0;entryX=0.5;entryY=0;entryDx=0;entryDy=0;" edge="1" parent="WIyWlLk6GJQsqaUBKTNV-1" source="GjBpAneU1MjriTZgQyeh-35" target="GjBpAneU1MjriTZgQyeh-39">
          <mxGeometry relative="1" as="geometry" />
        </mxCell>
        <mxCell id="GjBpAneU1MjriTZgQyeh-35" value="User object is returned" style="rounded=1;whiteSpace=wrap;html=1;fontSize=12;glass=0;strokeWidth=1;shadow=0;" vertex="1" parent="WIyWlLk6GJQsqaUBKTNV-1">
          <mxGeometry x="308" y="1060" width="180" height="60" as="geometry" />
        </mxCell>
        <mxCell id="GjBpAneU1MjriTZgQyeh-38" style="edgeStyle=orthogonalEdgeStyle;rounded=0;orthogonalLoop=1;jettySize=auto;html=1;exitX=0.5;exitY=1;exitDx=0;exitDy=0;entryX=0.5;entryY=0;entryDx=0;entryDy=0;" edge="1" parent="WIyWlLk6GJQsqaUBKTNV-1" source="GjBpAneU1MjriTZgQyeh-37" target="WIyWlLk6GJQsqaUBKTNV-3">
          <mxGeometry relative="1" as="geometry" />
        </mxCell>
        <mxCell id="GjBpAneU1MjriTZgQyeh-37" value="Start of program" style="rounded=1;whiteSpace=wrap;html=1;fontSize=12;glass=0;strokeWidth=1;shadow=0;" vertex="1" parent="WIyWlLk6GJQsqaUBKTNV-1">
          <mxGeometry x="308" y="-80" width="180" height="60" as="geometry" />
        </mxCell>
        <mxCell id="GjBpAneU1MjriTZgQyeh-39" value="End of program" style="rounded=1;whiteSpace=wrap;html=1;fontSize=12;glass=0;strokeWidth=1;shadow=0;" vertex="1" parent="WIyWlLk6GJQsqaUBKTNV-1">
          <mxGeometry x="308" y="1169" width="180" height="60" as="geometry" />
        </mxCell>
      </root>
    </mxGraphModel>
  </diagram>
</mxfile>
